<?xml version="1.0" encoding="UTF-8"?>
<svg version="1.1" xmlns="http://www.w3.org/2000/svg" width="400" height="400">
<path d="M0 0 C4.47365462 2.86812701 8.03660602 6.60035986 11 11 C11 11.66 11 12.32 11 13 C11.8971875 12.95359375 12.794375 12.9071875 13.71875 12.859375 C33.53591476 12.28615123 50.18064758 18.46814451 65 32 C80.07649801 46.29775328 85.26384731 65.88523434 86 86 C85.97175755 99.02824245 85.97175755 99.02824245 84 101 C82.14630389 101.08737645 80.28932459 101.10698153 78.43359375 101.09765625 C77.30888672 101.09443359 76.18417969 101.09121094 75.02539062 101.08789062 C73.84138672 101.07951172 72.65738281 101.07113281 71.4375 101.0625 C70.24962891 101.05798828 69.06175781 101.05347656 67.83789062 101.04882812 C64.89190588 101.03699686 61.94594684 101.01906076 59 101 C59 108.26 59 115.52 59 123 C61.07450439 122.99476318 63.14900879 122.98952637 65.28637695 122.98413086 C72.13558345 122.96757141 78.98479083 122.95651931 85.83401203 122.94818783 C89.9872525 122.94296614 94.14047249 122.93588141 98.29370117 122.92456055 C102.30073943 122.91370634 106.30775797 122.90771777 110.3148098 122.90512276 C111.84464008 122.90327309 113.37446926 122.89966123 114.90429115 122.89426994 C117.04469777 122.88702593 119.18502257 122.88601048 121.32543945 122.88647461 C122.54455521 122.884254 123.76367096 122.88203339 125.01972961 122.87974548 C128 123 128 123 131 124 C131 133.57 131 143.14 131 153 C136.13175781 152.96519531 136.13175781 152.96519531 141.3671875 152.9296875 C144.70670196 152.91405831 148.04621224 152.90193218 151.38574219 152.89013672 C153.69402919 152.88012316 156.00230364 152.86650837 158.31054688 152.84912109 C161.64195872 152.82466773 164.9732018 152.81347011 168.3046875 152.8046875 C169.834991 152.78920364 169.834991 152.78920364 171.39620972 152.77340698 C184.5606872 152.77137829 195.51008906 155.58972556 205.375 164.75 C214.53423566 174.60368591 216.31548755 186.23009097 216.24291992 199.1953125 C216.24481827 200.27766678 216.24671661 201.36002106 216.24867249 202.47517395 C216.2523545 206.02519143 216.24171724 209.57500095 216.23046875 213.125 C216.22927594 215.59838843 216.228824 218.07177731 216.2290802 220.54516602 C216.22752008 225.71291972 216.21926262 230.88060367 216.20581055 236.04833984 C216.18875009 242.68771798 216.18499848 249.32697232 216.18575573 255.96636963 C216.18548462 261.0653761 216.18001417 266.16436579 216.17275429 271.2633667 C216.16956351 273.71311313 216.16759926 276.16286147 216.16686058 278.61260986 C216.16470537 282.02172125 216.15598111 285.43074997 216.14526367 288.83984375 C216.14594345 290.37013969 216.14594345 290.37013969 216.14663696 291.93135071 C216.14237198 292.85369003 216.13810699 293.77602936 216.13371277 294.72631836 C216.13203692 295.53225937 216.13036108 296.33820038 216.12863445 297.16856384 C216 299 216 299 215 300 C213.2507128 300.09365006 211.49763746 300.11744438 209.74584961 300.11352539 C208.62476303 300.11344986 207.50367645 300.11337433 206.34861755 300.11329651 C204.51896202 300.10555458 204.51896202 300.10555458 202.65234375 300.09765625 C201.41078018 300.0962413 200.16921661 300.09482635 198.89002991 300.09336853 C195.58394509 300.08870591 192.27792854 300.07971497 188.97186279 300.06866455 C185.6003885 300.05844827 182.22890717 300.05387045 178.85742188 300.04882812 C172.23826225 300.03777395 165.61913507 300.02101736 159 300 C158.7839209 301.90036011 158.7839209 301.90036011 158.56347656 303.83911133 C157.71323693 311.31675013 153.5971906 317.10245823 148 322 C147.21625 322.70125 146.4325 323.4025 145.625 324.125 C138.08811498 329.5084893 130.41659349 330.67901773 121.4375 329.375 C111.48219646 327.30039828 104.73456768 320.97310755 99.0703125 312.76171875 C96.42908622 308.41429886 96 305.06848517 96 300 C55.74 300 15.48 300 -26 300 C-26.33 302.64 -26.66 305.28 -27 308 C-30.13848944 316.88501941 -35.96724262 322.38082586 -44 327 C-52.19779001 330.66176401 -60.45431039 330.67978995 -69 328 C-77.32664911 323.9560064 -84.72120498 316.74345338 -88 308 C-88.42770399 305.34099038 -88.69822415 302.67757482 -89 300 C-90.08269165 300.00785522 -90.08269165 300.00785522 -91.18725586 300.01586914 C-94.43732849 300.03657358 -97.68738728 300.04963918 -100.9375 300.0625 C-102.64196289 300.07506836 -102.64196289 300.07506836 -104.38085938 300.08789062 C-105.46044922 300.09111328 -106.54003906 300.09433594 -107.65234375 300.09765625 C-109.15269165 300.10551147 -109.15269165 300.10551147 -110.68334961 300.11352539 C-113 300 -113 300 -114 299 C-114.10364404 296.7644085 -114.13523935 294.52547753 -114.14044189 292.28749084 C-114.14341302 291.57750944 -114.14638414 290.86752804 -114.1494453 290.13603204 C-114.15816877 287.73919522 -114.15964359 285.34240812 -114.16113281 282.94555664 C-114.16575837 281.23438916 -114.17078266 279.52322272 -114.17617798 277.8120575 C-114.18932825 273.15097445 -114.19575189 268.48990582 -114.20018864 263.82880712 C-114.20311478 260.92031295 -114.20721867 258.01182278 -114.21169281 255.10333061 C-114.22537388 246.01360404 -114.23503788 236.92388653 -114.2388947 227.83415037 C-114.24337888 217.32205953 -114.26094089 206.81009849 -114.2898953 196.29804713 C-114.31147019 188.18510896 -114.32159671 180.07220742 -114.32293582 171.95924085 C-114.32398675 167.10777172 -114.32995551 162.2564245 -114.34775543 157.40498543 C-114.36416414 152.84384946 -114.36642694 148.282928 -114.35761642 143.72177315 C-114.3568422 142.04393441 -114.3612391 140.36608447 -114.37107468 138.68827438 C-114.38367838 136.4050872 -114.37798167 134.12267316 -114.36749268 131.8394928 C-114.36895924 130.55949937 -114.3704258 129.27950594 -114.3719368 127.96072483 C-114.24919765 126.98368564 -114.12645851 126.00664644 -114 125 C-110.33669831 122.55779888 -108.59888959 122.75727508 -104.23364258 122.77294922 C-103.20886055 122.77251114 -103.20886055 122.77251114 -102.16337585 122.77206421 C-99.90696477 122.77345668 -97.65088459 122.78901371 -95.39453125 122.8046875 C-93.82940349 122.80841793 -92.26427339 122.81126476 -90.69914246 122.81326294 C-86.58091782 122.82089706 -82.46283439 122.8405436 -78.34466553 122.8626709 C-74.14190582 122.88313411 -69.93912329 122.89226567 -65.73632812 122.90234375 C-57.49081342 122.92378976 -49.24544054 122.95897006 -41 123 C-41 115.74 -41 108.48 -41 101 C-43.784375 101.06960937 -43.784375 101.06960937 -46.625 101.140625 C-49.08331718 101.17815656 -51.54165184 101.21455523 -54 101.25 C-55.22074219 101.28351563 -56.44148438 101.31703125 -57.69921875 101.3515625 C-65.54827287 101.43641714 -71.4107825 101.07543273 -77.51123047 95.65795898 C-82.47152202 90.30961741 -83.47693619 83.96480517 -83.31640625 76.93359375 C-82.2205284 66.77304727 -78.71919224 57.01062143 -74 48 C-73.55914062 47.14792969 -73.11828125 46.29585937 -72.6640625 45.41796875 C-69.04033238 38.90126072 -64.43051922 34.05842809 -59 29 C-56.46063017 26.51706061 -54.18748297 24.26247615 -52.125 21.375 C-47.98194331 16.74452488 -42.27773014 15.72826115 -36.39013672 14.67016602 C-27.97115269 13.15043961 -22.95115632 11.33282192 -17 5 C-11.84528081 0.81767206 -6.70613407 -1.86930566 0 0 Z M-34 101 C-34 108.26 -34 115.52 -34 123 C-5.62 123 22.76 123 52 123 C52 115.74 52 108.48 52 101 C23.62 101 -4.76 101 -34 101 Z " fill="#1D1C35" transform="translate(149,23)"/>
<path d="M0 0 C76.56 0 153.12 0 232 0 C232 44.88 232 89.76 232 136 C228.535 136.99 228.535 136.99 225 138 C218.5141683 140.61029079 212.93162128 144.10256808 209 150 C206.67234993 150.38311005 206.67234993 150.38311005 203.69924927 150.39440918 C202.57478394 150.40575897 201.4503186 150.41710876 200.29177856 150.42880249 C198.43249222 150.42440659 198.43249222 150.42440659 196.53564453 150.41992188 C194.58437653 150.43262619 194.58437653 150.43262619 192.59368896 150.44558716 C189.01921589 150.46785782 185.44497294 150.47073103 181.87044001 150.46883965 C178.88830185 150.46872017 175.90621287 150.47727496 172.92408836 150.48561716 C165.88864943 150.50487205 158.85332916 150.50772786 151.81787109 150.50097656 C144.55705329 150.49433719 137.29674369 150.51719062 130.03602898 150.55429029 C123.80579924 150.58497088 117.57573309 150.59634904 111.3454293 150.59245348 C107.6228118 150.59038385 103.90058945 150.59589703 100.17804337 150.62034607 C96.02606757 150.64671284 91.87516633 150.63289805 87.72314453 150.61523438 C86.48766876 150.62849762 85.25219299 150.64176086 83.97927856 150.65542603 C75.62691918 150.57258422 75.62691918 150.57258422 72.33908081 147.56970215 C71.89718414 146.72170044 71.45528748 145.87369873 71 145 C68.89090436 143.24309924 68.89090436 143.24309924 66.625 141.8125 C65.89539063 141.32394531 65.16578125 140.83539063 64.4140625 140.33203125 C57.07603135 136.28305289 48.49011851 135.4726738 40.40234375 137.72265625 C33.72424535 140.55197066 28.34905039 144.20126614 24 150 C16.08 150 8.16 150 0 150 C0 100.5 0 51 0 0 Z " fill="#FDC537" transform="translate(42,153)"/>
<path d="M0 0 C1.96423621 0.00081715 1.96423621 0.00081715 3.96815395 0.00165081 C4.69602956 -0.00076361 5.42390516 -0.00317802 6.1738376 -0.0056656 C8.62525862 -0.01132432 11.07642156 -0.00262328 13.52783108 0.00596905 C15.28017657 0.00489671 17.03252171 0.00295875 18.78486538 0.00021648 C23.55329188 -0.00464241 28.32162521 0.00303653 33.09004045 0.01316953 C38.07039652 0.0219318 43.05074951 0.02019295 48.03111172 0.01980877 C56.39494296 0.02074616 64.75873798 0.02944068 73.12255764 0.04307842 C82.80648748 0.05880986 92.49037764 0.06407639 102.17431933 0.06334287 C111.4733546 0.06273351 120.77237689 0.06783018 130.07140827 0.07613468 C134.03671717 0.07967451 138.00202148 0.08149893 141.96733189 0.08202839 C146.63184542 0.08302951 151.29632536 0.08910708 155.96082783 0.09919453 C157.67778092 0.10212684 159.39473788 0.10334343 161.11169338 0.10276699 C163.44531221 0.10227981 165.77883549 0.10789711 168.11244106 0.1151762 C169.42155484 0.11685205 170.73066862 0.11852789 172.07945251 0.12025452 C174.97680569 0.24888897 174.97680569 0.24888897 175.97680569 1.24888897 C176.07758689 3.61287365 176.11653784 5.94700208 176.10961819 8.31138897 C176.11057491 9.01787579 176.11153164 9.7243626 176.11251736 10.45225811 C176.11319901 11.9485969 176.11134573 13.44493864 176.10717678 14.94127178 C176.10182826 17.23919054 176.10712219 19.53691383 176.11352444 21.83482647 C176.11286365 23.28534774 176.11158248 24.73586888 176.10961819 26.18638897 C176.11164242 26.87805157 176.11366665 27.56971416 176.11575222 28.28233624 C176.09175792 33.13393673 176.09175792 33.13393673 174.97680569 34.24888897 C168.37680569 34.24888897 161.77680569 34.24888897 154.97680569 34.24888897 C154.97680569 54.37888897 154.97680569 74.50888897 154.97680569 95.24888897 C158.27680569 95.24888897 161.57680569 95.24888897 164.97680569 95.24888897 C166.97680569 97.24888897 166.97680569 97.24888897 166.97680569 101.24888897 C164.15048923 102.6620472 161.79282976 102.37486584 158.63084316 102.37587261 C157.64316034 102.3782126 157.64316034 102.3782126 156.63552433 102.38059986 C154.41910282 102.38460303 152.20274925 102.38142286 149.98632717 102.3782835 C148.40146755 102.37963783 146.81660824 102.38141794 145.23174953 102.38359356 C140.91994705 102.38816374 136.60816842 102.38638013 132.2963655 102.38321447 C127.79247042 102.38068918 123.28857743 102.38302884 118.78468227 102.38460064 C111.22119688 102.38642165 103.65772124 102.38401762 96.09423733 102.37926006 C87.33734558 102.37381561 78.58047711 102.3755817 69.82358593 102.38108647 C62.31700835 102.3856172 54.8104378 102.3862684 47.30385929 102.3836478 C42.81521858 102.38208506 38.32658882 102.38189122 33.8379488 102.38518429 C29.61994106 102.38806249 25.40196347 102.38608826 21.18395901 102.38029003 C19.63148518 102.37896224 18.07900883 102.37935687 16.52653599 102.3815527 C14.41625067 102.38426343 12.30606354 102.38088409 10.19578457 102.37587261 C9.01203464 102.37549559 7.8282847 102.37511856 6.60866356 102.37473011 C3.97680569 102.24888897 3.97680569 102.24888897 2.97680569 101.24888897 C2.97680569 99.59888897 2.97680569 97.94888897 2.97680569 96.24888897 C6.93680569 96.24888897 10.89680569 96.24888897 14.97680569 96.24888897 C14.97680569 75.78888897 14.97680569 55.32888897 14.97680569 34.24888897 C8.70680569 34.24888897 2.43680569 34.24888897 -4.02319431 34.24888897 C-6.49807143 31.77401186 -5.19656663 25.70807777 -5.20874119 22.23912334 C-5.20866062 21.51297832 -5.20858006 20.78683331 -5.20849705 20.03868389 C-5.21068182 17.82405115 -5.22882962 15.60991773 -5.24780369 13.39537334 C-5.25073788 11.99368235 -5.2527225 10.59198897 -5.25366306 9.19029522 C-5.25777195 7.90840313 -5.26188084 6.62651104 -5.26611423 5.30577374 C-4.93387058 1.12484632 -4.18319043 0.34438738 0 0 Z " fill="#181730" transform="translate(73.02319431304932,175.7511110305786)"/>
<path d="M0 0 C41.91 0 83.82 0 127 0 C127 20.13 127 40.26 127 61 C85.09 61 43.18 61 0 61 C0 40.87 0 20.74 0 0 Z " fill="#444C57" transform="translate(94,210)"/>
<path d="M0 0 C1.22493164 -0.01836914 1.22493164 -0.01836914 2.47460938 -0.03710938 C18.67341238 -0.07583161 32.87582693 7.55597892 44.4375 18.5 C48.73293002 22.96209573 51.84539835 27.70319988 54.6875 33.1875 C55.07808594 33.92871094 55.46867187 34.66992188 55.87109375 35.43359375 C61.98302753 47.99328185 60.6875 59.98665497 60.6875 74.1875 C18.7775 74.1875 -23.1325 74.1875 -66.3125 74.1875 C-65.3225 70.8875 -64.3325 67.5875 -63.3125 64.1875 C-63.0215186 61.65216637 -62.78852703 59.10923236 -62.625 56.5625 C-61.01381794 40.02512152 -49.73968252 23.71937565 -37.3125 13.1875 C-25.69051485 4.30393491 -14.53172705 0.01130874 0 0 Z " fill="#FCC537" transform="translate(166.3125,42.8125)"/>
<path d="M0 0 C59.51111111 0 59.51111111 0 71 11 C74.25939754 15.06474985 76 17.71017583 76 23 C75.3758168 23.01030746 74.75163361 23.02061493 74.10853577 23.03123474 C67.63645448 23.13906533 61.16451907 23.25368147 54.69262695 23.37231445 C52.27436361 23.41573878 49.8560681 23.45740812 47.43774414 23.49731445 C43.97011604 23.55483603 40.50265097 23.61858187 37.03515625 23.68359375 C35.94662857 23.70030624 34.85810089 23.71701874 33.73658752 23.73423767 C32.73562546 23.75418289 31.73466339 23.77412811 30.70336914 23.79467773 C29.81734512 23.81022202 28.93132111 23.8257663 28.01844788 23.84178162 C26.00362459 23.77981325 26.00362459 23.77981325 25 25 C24.898863 28.01808063 24.86031091 31.01280513 24.8671875 34.03125 C24.86623077 34.93750122 24.86527405 35.84375244 24.86428833 36.77746582 C24.86360647 38.69751047 24.86546118 40.61755741 24.86962891 42.53759766 C24.87497708 45.48735704 24.86968412 48.43696414 24.86328125 51.38671875 C24.86394203 53.24739617 24.86522319 55.1080735 24.8671875 56.96875 C24.86516327 57.85727661 24.86313904 58.74580322 24.86105347 59.66125488 C24.474172 63.64828858 24.474172 63.64828858 26 67 C27.62579218 67.12281952 29.25677004 67.17782504 30.88696289 67.20532227 C31.94258423 67.22550415 32.99820557 67.24568604 34.08581543 67.26647949 C35.2034729 67.28295532 36.32113037 67.29943115 37.47265625 67.31640625 C38.49387573 67.33505737 39.51509521 67.3537085 40.56726074 67.3729248 C44.39891529 67.44146123 48.23071875 67.50145712 52.0625 67.5625 C64.9015625 67.7790625 64.9015625 67.7790625 78 68 C78 85.16 78 102.32 78 120 C70.11538292 120.11478737 62.2336639 120.21433637 54.34887695 120.2746582 C51.66661546 120.29697994 48.9849458 120.33176794 46.30297852 120.37719727 C42.44790745 120.43784525 38.5937423 120.46621127 34.73828125 120.48828125 C32.93959343 120.52699089 32.93959343 120.52699089 31.10456848 120.56648254 C22.74737463 120.56929855 22.74737463 120.56929855 18.85229492 117.60229492 C18.2410376 116.7435376 17.62978027 115.88478027 17 115 C11.85685171 110.39823574 6.74597867 108.34919573 0 107 C0 71.69 0 36.38 0 0 Z " fill="#FCAE22" transform="translate(280,183)"/>
<path d="M0 0 C55.44 0 110.88 0 168 0 C168 6.93 168 13.86 168 21 C112.56 21 57.12 21 0 21 C0 14.07 0 7.14 0 0 Z " fill="#ED4A00" transform="translate(75,183)"/>
<path d="M0 0 C76.56 0 153.12 0 232 0 C232 44.88 232 89.76 232 136 C231.67 136 231.34 136 231 136 C231 91.45 231 46.9 231 1 C160.38 1 89.76 1 17 1 C17 50.17 17 99.34 17 150 C11.39 150 5.78 150 0 150 C0 100.5 0 51 0 0 Z " fill="#F5AB24" transform="translate(42,153)"/>
<path d="M0 0 C43.56 0 87.12 0 132 0 C131.01 2.97 130.02 5.94 129 9 C128.67 10.32 128.34 11.64 128 13 C87.08 13 46.16 13 4 13 C3.34 10.36 2.68 7.72 2 5 C1.34 3.35 0.68 1.7 0 0 Z " fill="#616C76" transform="translate(118,303)"/>
<path d="M0 0 C15.51 0 31.02 0 47 0 C47 10.23 47 20.46 47 31 C31.49 31 15.98 31 0 31 C0 20.77 0 10.54 0 0 Z " fill="#EAE5ED" transform="translate(311,213)"/>
<path d="M0 0 C3.23997413 1.65766118 5.29933934 3.64567353 7.6875 6.375 C7.6875 7.035 7.6875 7.695 7.6875 8.375 C7.09324219 8.52195312 6.49898437 8.66890625 5.88671875 8.8203125 C-5.48169987 11.89668083 -14.49215072 17.68000563 -23.3125 25.375 C-23.91578125 25.88289063 -24.5190625 26.39078125 -25.140625 26.9140625 C-37.71038393 38.36781479 -45.08204553 54.76310775 -47.3125 71.375 C-54.0625 67.75 -54.0625 67.75 -56.3125 64.375 C-57.14848595 58.69354208 -54.9900425 55.58721566 -51.875 51.125 C-51.04251387 49.89093174 -50.21046265 48.65656994 -49.37890625 47.421875 C-48.35603516 45.91367188 -48.35603516 45.91367188 -47.3125 44.375 C-46.17841002 42.10682005 -46.16079092 40.75457157 -46.1015625 38.234375 C-46.07320312 37.41066406 -46.04484375 36.58695313 -46.015625 35.73828125 C-45.96401487 34.01192255 -45.91960753 32.28533174 -45.8828125 30.55859375 C-45.69460438 25.51618451 -45.31219422 21.63007285 -42.3125 17.375 C-38.59568997 15.20525597 -34.73257159 14.95732306 -30.5 14.5 C-20.07131154 13.05819588 -14.60577714 9.08557428 -6.6328125 2.30078125 C-2.91230977 -0.78711075 -2.91230977 -0.78711075 0 0 Z " fill="#2AA089" transform="translate(145.3125,29.625)"/>
<path d="M0 0 C18.15 0 36.3 0 55 0 C55 4.29 55 8.58 55 13 C38.17 13 21.34 13 4 13 C1 4 1 4 0 0 Z " fill="#616C76" transform="translate(303,303)"/>
<path d="M0 0 C0.66 0 1.32 0 2 0 C3.26754215 9.09411192 -0.08022516 14.56239607 -5 22 C-8.10006974 26.73497683 -9.84737676 30.17428475 -9 36 C-6.21358251 41.93628073 -1.438933 44.72269422 4 48 C3.37440499 52.22987535 2.39768707 54.37208692 -1.12109375 57.04296875 C-4.68707925 58.85932311 -8.14405815 58.88928548 -12 58 C-15.72242692 55.22797995 -17.89764473 52.50963519 -19 48 C-20.86840229 33.19650494 -14.07805482 17.40102584 -5.25 5.875 C-3.56672191 3.80502288 -1.88720321 1.88720321 0 0 Z " fill="#F6AA22" transform="translate(92,59)"/>
<path d="M0 0 C-0.32613281 0.94488281 -0.65226562 1.88976563 -0.98828125 2.86328125 C-2.10871236 6.77251548 -2.16411081 10.42856409 -2.17504883 14.47412109 C-2.22363164 25.06136464 -3.56432178 31.4097074 -10 40 C-13.25175422 45.18698187 -13.25175422 45.18698187 -15 51 C-15.99 50.67 -16.98 50.34 -18 50 C-19.44974147 47.10051706 -19.33029103 45.23457422 -19 42 C-17.77737057 39.4011048 -16.20384212 37.10117901 -14.5625 34.75 C-13.73001387 33.51593174 -12.89796265 32.28156994 -12.06640625 31.046875 C-11.38449219 30.04140625 -10.70257813 29.0359375 -10 28 C-8.86591002 25.73182005 -8.84829092 24.37957157 -8.7890625 21.859375 C-8.76070312 21.03566406 -8.73234375 20.21195313 -8.703125 19.36328125 C-8.65151487 17.63692255 -8.60710753 15.91033174 -8.5703125 14.18359375 C-8.38040057 9.09553675 -7.84293376 5.39744434 -5 1 C-3 0 -3 0 0 0 Z " fill="#1A826C" transform="translate(108,46)"/>
<path d="M0 0 C7.59 0 15.18 0 23 0 C22.34 1.65 21.68 3.3 21 5 C20.34 7.64 19.68 10.28 19 13 C12.73 13 6.46 13 0 13 C0 8.71 0 4.42 0 0 Z " fill="#454D58" transform="translate(42,303)"/>
<path d="M0 0 C1.93166016 0.01740234 1.93166016 0.01740234 3.90234375 0.03515625 C5.19269531 0.04417969 6.48304688 0.05320312 7.8125 0.0625 C8.81152344 0.07410156 9.81054688 0.08570313 10.83984375 0.09765625 C10.88256475 1.7637753 10.88048207 3.4314851 10.83984375 5.09765625 C9.83984375 6.09765625 9.83984375 6.09765625 6.8984375 6.1953125 C5.10599609 6.17791016 5.10599609 6.17791016 3.27734375 6.16015625 C1.48103516 6.14662109 1.48103516 6.14662109 -0.3515625 6.1328125 C-1.27839844 6.12121094 -2.20523437 6.10960937 -3.16015625 6.09765625 C-3.54234392 4.44150968 -3.87410727 2.77308601 -4.16015625 1.09765625 C-3.16015625 0.09765625 -3.16015625 0.09765625 0 0 Z " fill="#1A182F" transform="translate(308.16015625,272.90234375)"/>
<path d="M0 0 C1.98 0 3.96 0 6 0 C5.71125 0.66 5.4225 1.32 5.125 2 C3.76562701 5.62499465 2.89375361 9.23346693 2 13 C1.34 13 0.68 13 0 13 C0 8.71 0 4.42 0 0 Z " fill="#5F6974" transform="translate(59,303)"/>
<path d="M0 0 C0.33 0 0.66 0 1 0 C3.22583166 23.00766939 3.22583166 23.00766939 -3 31 C-3.66 30.01 -4.32 29.02 -5 28 C-4.35546875 27.07058594 -3.7109375 26.14117187 -3.046875 25.18359375 C-0.27271464 20.32881312 -0.33239421 15.54171489 -0.25 10.0625 C-0.22035156 9.09248047 -0.19070312 8.12246094 -0.16015625 7.12304688 C-0.08997606 4.74861702 -0.03702676 2.37513914 0 0 Z " fill="#25937F" transform="translate(105,53)"/>
<path d="M0 0 C1.2065625 0.0309375 1.2065625 0.0309375 2.4375 0.0625 C2.81968767 1.71864657 3.15145102 3.38707024 3.4375 5.0625 C2.4375 6.0625 2.4375 6.0625 -0.125 6.125 C-1.3315625 6.0940625 -1.3315625 6.0940625 -2.5625 6.0625 C-2.94468767 4.40635343 -3.27645102 2.73792976 -3.5625 1.0625 C-2.5625 0.0625 -2.5625 0.0625 0 0 Z " fill="#151631" transform="translate(91.5625,317.9375)"/>
<path d="M0 0 C1.2065625 0.0309375 1.2065625 0.0309375 2.4375 0.0625 C2.7675 1.7125 3.0975 3.3625 3.4375 5.0625 C1.4575 5.3925 -0.5225 5.7225 -2.5625 6.0625 C-2.94468767 4.40635343 -3.27645102 2.73792976 -3.5625 1.0625 C-2.5625 0.0625 -2.5625 0.0625 0 0 Z " fill="#151531" transform="translate(276.5625,317.9375)"/>
<path d="M0 0 C1.65 0 3.3 0 5 0 C5.38218767 1.65614657 5.71395102 3.32457024 6 5 C5 6 5 6 2.4375 6.0625 C1.2309375 6.0315625 1.2309375 6.0315625 0 6 C0 4.02 0 2.04 0 0 Z " fill="#1F1C30" transform="translate(135,90)"/>
<path d="M0 0 C1.65 0 3.3 0 5 0 C5.33 1.65 5.66 3.3 6 5 C4.34385343 5.38218767 2.67542976 5.71395102 1 6 C0 5 0 5 -0.0625 2.4375 C-0.041875 1.633125 -0.02125 0.82875 0 0 Z " fill="#181730" transform="translate(193,90)"/>
<path d="M0 0 C1.65 0 3.3 0 5 0 C5.33 1.65 5.66 3.3 6 5 C4.34385343 5.38218767 2.67542976 5.71395102 1 6 C0 5 0 5 -0.0625 2.4375 C-0.041875 1.633125 -0.02125 0.82875 0 0 Z " fill="#181830" transform="translate(164,90)"/>
<path d="M0 0 C1.67542976 0.28604898 3.34385343 0.61781233 5 1 C4.67 2.65 4.34 4.3 4 6 C2.35 6 0.7 6 -1 6 C-1.042721 4.33388095 -1.04063832 2.66617115 -1 1 C-0.67 0.67 -0.34 0.34 0 0 Z " fill="#1B192F" transform="translate(151,73)"/>
<path d="M0 0 C1.65 0.33 3.3 0.66 5 1 C4.67 2.65 4.34 4.3 4 6 C2.35 5.67 0.7 5.34 -1 5 C-0.67 3.35 -0.34 1.7 0 0 Z " fill="#161630" transform="translate(180,73)"/>
</svg>
